ffmpeg started on 2025-05-28 at 20:46:01
Report written to "D:\Convert\FFMetrics\reports\ssim_report-6.txt"
Log level: 32
Command line:
ffmpeg -hide_banner -nostdin -i "G:\\\xc0\xed\xe8\xec\xe5\\\xce\xed\xe3\xee\xe8\xed\xe3\xe8\\!_36_\xce\xf1\xe5\xed\xfc_2024\\JamClub\\\xc8\xf1\xf2\xee\xf0\xe8\xff \xee \xf2\xee\xec, \xea\xe0\xea \xff \xef\xf0\xe8\xf8\xb8\xeb \xed\xe0 \xe2\xe5\xf7\xe5\xf0\xe8\xed\xea\xf3, \xe0 \xf2\xe0\xec \xed\xe5 \xe1\xfb\xeb\xee \xed\xe8 \xee\xe4\xed\xee\xe9 \xe6\xe5\xed\xf9\xe8\xed\xfb\\JamClub_Goukon_ni_Ittara_Onna_ga_Inakatta_Hanashi_08_1080p_HEVC.mkv" -i "G:\\\xc0\xed\xe8\xec\xe5\\\xce\xed\xe3\xee\xe8\xed\xe3\xe8\\!_36_\xce\xf1\xe5\xed\xfc_2024\\JamClub\\\xc8\xf1\xf2\xee\xf0\xe8\xff \xee \xf2\xee\xec, \xea\xe0\xea \xff \xef\xf0\xe8\xf8\xb8\xeb \xed\xe0 \xe2\xe5\xf7\xe5\xf0\xe8\xed\xea\xf3, \xe0 \xf2\xe0\xec \xed\xe5 \xe1\xfb\xeb\xee \xed\xe8 \xee\xe4\xed\xee\xe9 \xe6\xe5\xed\xf9\xe8\xed\xfb\\JamClub_Goukon_ni_Ittara_Onna_ga_Inakatta_Hanashi_08_1080p.mp4" -lavfi "[0:v]settb=AVTB,setpts=PTS-STARTPTS,format=pix_fmts=yuv420p10,fps=24000/1001,scale=1920:1080:flags=bicubic[main];[1:v]settb=AVTB,setpts=PTS-STARTPTS,format=pix_fmts=yuv420p,fps=24000/1001,scale=1920:1080:flags=bicubic[ref];[main][ref]ssim=eof_action=endall:stats_file='D\\:/Convert/FFMetrics/logs/ssim_logfile-6.txt'" -f null -
Input #0, matroska,webm, from 'G:\Аниме\Онгоинги\!_36_Осень_2024\JamClub\История о том, как я пришёл на вечеринку, а там не было ни одной женщины\JamClub_Goukon_ni_Ittara_Onna_ga_Inakatta_Hanashi_08_1080p_HEVC.mkv':
  Metadata:
    COMPATIBLE_BRANDS: isomiso2avc1mp41
    MAJOR_BRAND     : isom
    MINOR_VERSION   : 512
    ENCODER         : Lavf61.7.100
  Duration: 00:24:03.69, start: -0.001000, bitrate: 925 kb/s
  Stream #0:0: Video: hevc (Main 10), yuv420p10le(tv, bt709, progressive), 1920x1080 [SAR 1:1 DAR 16:9], 23.98 fps, 23.98 tbr, 1k tbn (default)
      Metadata:
        HANDLER_NAME    : VideoHandler
        VENDOR_ID       : [0][0][0][0]
        ENCODER         : Lavc61.19.100 libx265
        BPS             : 727253
        DURATION        : 00:24:03.650708333
        NUMBER_OF_FRAMES: 34613
        NUMBER_OF_BYTES : 131237418
        _STATISTICS_WRITING_APP: mkvpropedit v66.0.0 ('Josie') 64-bit
        _STATISTICS_WRITING_DATE_UTC: 2025-05-28 10:46:47
        _STATISTICS_TAGS: BPS DURATION NUMBER_OF_FRAMES NUMBER_OF_BYTES
  Stream #0:1(eng): Audio: aac (LC), 48000 Hz, stereo, fltp (default)
      Metadata:
        HANDLER_NAME    : SoundHandler
        VENDOR_ID       : [0][0][0][0]
        ENCODER         : Lavc61.19.100 aac
        BPS             : 193872
        DURATION        : 00:24:03.651000000
        NUMBER_OF_FRAMES: 67672
        NUMBER_OF_BYTES : 34985547
        _STATISTICS_WRITING_APP: mkvpropedit v66.0.0 ('Josie') 64-bit
        _STATISTICS_WRITING_DATE_UTC: 2025-05-28 10:46:47
        _STATISTICS_TAGS: BPS DURATION NUMBER_OF_FRAMES NUMBER_OF_BYTES
Input #1, mov,mp4,m4a,3gp,3g2,mj2, from 'G:\Аниме\Онгоинги\!_36_Осень_2024\JamClub\История о том, как я пришёл на вечеринку, а там не было ни одной женщины\JamClub_Goukon_ni_Ittara_Onna_ga_Inakatta_Hanashi_08_1080p.mp4':
  Metadata:
    major_brand     : isom
    minor_version   : 512
    compatible_brands: isomiso2avc1mp41
    encoder         : Lavf60.16.100
  Duration: 00:24:03.67, start: 0.000000, bitrate: 2804 kb/s
  Stream #1:0[0x1](und): Video: h264 (High) (avc1 / 0x31637661), yuv420p(progressive), 1920x1080 [SAR 1:1 DAR 16:9], 2606 kb/s, 23.98 fps, 23.98 tbr, 90k tbn (default)
      Metadata:
        handler_name    : VideoHandler
        vendor_id       : [0][0][0][0]
  Stream #1:1[0x2](eng): Audio: aac (LC) (mp4a / 0x6134706D), 48000 Hz, stereo, fltp, 191 kb/s (default)
      Metadata:
        handler_name    : SoundHandler
        vendor_id       : [0][0][0][0]
Stream mapping:
  Stream #0:0 (hevc) -> settb:default
  Stream #1:0 (h264) -> settb:default
  ssim:default -> Stream #0:0 (wrapped_avframe)
  Stream #0:1 -> #0:1 (aac (native) -> pcm_s16le (native))
Output #0, null, to 'pipe:':
  Metadata:
    COMPATIBLE_BRANDS: isomiso2avc1mp41
    MAJOR_BRAND     : isom
    MINOR_VERSION   : 512
    encoder         : Lavf61.7.100
  Stream #0:0: Video: wrapped_avframe, yuv420p10le(tv, bt709, progressive), 1920x1080 [SAR 1:1 DAR 16:9], q=2-31, 200 kb/s, 23.98 fps, 23.98 tbn
      Metadata:
        encoder         : Lavc61.19.100 wrapped_avframe
  Stream #0:1(eng): Audio: pcm_s16le, 48000 Hz, stereo, s16, 1536 kb/s (default)
      Metadata:
        HANDLER_NAME    : SoundHandler
        VENDOR_ID       : [0][0][0][0]
        _STATISTICS_TAGS: BPS DURATION NUMBER_OF_FRAMES NUMBER_OF_BYTES
        BPS             : 193872
        DURATION        : 00:24:03.651000000
        NUMBER_OF_FRAMES: 67672
        NUMBER_OF_BYTES : 34985547
        _STATISTICS_WRITING_APP: mkvpropedit v66.0.0 ('Josie') 64-bit
        _STATISTICS_WRITING_DATE_UTC: 2025-05-28 10:46:47
        encoder         : Lavc61.19.100 pcm_s16le
frame=  114 fps=0.0 q=-0.0 size=N/A time=00:00:04.75 bitrate=N/A speed=9.22x    frame=  283 fps=272 q=-0.0 size=N/A time=00:00:11.80 bitrate=N/A speed=11.4x    frame=  481 fps=311 q=-0.0 size=N/A time=00:00:20.06 bitrate=N/A speed=  13x    frame=  743 fps=359 q=-0.0 size=N/A time=00:00:30.98 bitrate=N/A speed=  15x    frame= 1017 fps=395 q=-0.0 size=N/A time=00:00:42.41 bitrate=N/A speed=16.5x    frame= 1260 fps=406 q=-0.0 size=N/A time=00:00:52.55 bitrate=N/A speed=16.9x    frame= 1490 fps=412 q=-0.0 size=N/A time=00:01:02.14 bitrate=N/A speed=17.2x    frame= 1727 fps=419 q=-0.0 size=N/A time=00:01:12.03 bitrate=N/A speed=17.5x    frame= 1953 fps=421 q=-0.0 size=N/A time=00:01:21.45 bitrate=N/A speed=17.5x    frame= 2166 fps=419 q=-0.0 size=N/A time=00:01:30.34 bitrate=N/A speed=17.5x    frame= 2371 fps=418 q=-0.0 size=N/A time=00:01:38.89 bitrate=N/A speed=17.4x    frame= 2639 fps=426 q=-0.0 size=N/A time=00:01:50.06 bitrate=N/A speed=17.8x    frame= 2896 fps=432 q=-0.0 size=N/A time=00:02:00.78 bitrate=N/A speed=  18x    frame= 3120 fps=432 q=-0.0 size=N/A time=00:02:10.13 bitrate=N/A speed=  18x    frame= 3333 fps=431 q=-0.0 size=N/A time=00:02:19.01 bitrate=N/A speed=  18x    frame= 3572 fps=433 q=-0.0 size=N/A time=00:02:28.98 bitrate=N/A speed=18.1x    frame= 3844 fps=438 q=-0.0 size=N/A time=00:02:40.32 bitrate=N/A speed=18.3x    frame= 4067 fps=438 q=-0.0 size=N/A time=00:02:49.62 bitrate=N/A speed=18.3x    frame= 4337 fps=442 q=-0.0 size=N/A time=00:03:00.88 bitrate=N/A speed=18.5x    frame= 4595 fps=446 q=-0.0 size=N/A time=00:03:11.64 bitrate=N/A speed=18.6x    frame= 4875 fps=450 q=-0.0 size=N/A time=00:03:23.32 bitrate=N/A speed=18.8x    frame= 5122 fps=452 q=-0.0 size=N/A time=00:03:33.63 bitrate=N/A speed=18.8x    frame= 5362 fps=452 q=-0.0 size=N/A time=00:03:43.64 bitrate=N/A speed=18.9x    frame= 5643 fps=456 q=-0.0 size=N/A time=00:03:55.36 bitrate=N/A speed=  19x    frame= 5877 fps=456 q=-0.0 size=N/A time=00:04:05.11 bitrate=N/A speed=  19x    frame= 6149 fps=459 q=-0.0 size=N/A time=00:04:16.46 bitrate=N/A speed=19.1x    frame= 6421 fps=461 q=-0.0 size=N/A time=00:04:27.80 bitrate=N/A speed=19.2x    frame= 6663 fps=461 q=-0.0 size=N/A time=00:04:37.90 bitrate=N/A speed=19.2x    frame= 6925 fps=463 q=-0.0 size=N/A time=00:04:48.83 bitrate=N/A speed=19.3x    frame= 7172 fps=464 q=-0.0 size=N/A time=00:04:59.13 bitrate=N/A speed=19.3x    frame= 7449 fps=466 q=-0.0 size=N/A time=00:05:10.68 bitrate=N/A speed=19.4x    frame= 7712 fps=467 q=-0.0 size=N/A time=00:05:21.65 bitrate=N/A speed=19.5x    frame= 7982 fps=469 q=-0.0 size=N/A time=00:05:32.91 bitrate=N/A speed=19.6x    frame= 8237 fps=470 q=-0.0 size=N/A time=00:05:43.55 bitrate=N/A speed=19.6x    frame= 8505 fps=471 q=-0.0 size=N/A time=00:05:54.72 bitrate=N/A speed=19.7x    frame= 8774 fps=472 q=-0.0 size=N/A time=00:06:05.94 bitrate=N/A speed=19.7x    frame= 9046 fps=474 q=-0.0 size=N/A time=00:06:17.29 bitrate=N/A speed=19.8x    frame= 9319 fps=475 q=-0.0 size=N/A time=00:06:28.67 bitrate=N/A speed=19.8x    frame= 9585 fps=477 q=-0.0 size=N/A time=00:06:39.77 bitrate=N/A speed=19.9x    frame= 9865 fps=478 q=-0.0 size=N/A time=00:06:51.45 bitrate=N/A speed=19.9x    frame=10127 fps=479 q=-0.0 size=N/A time=00:07:02.38 bitrate=N/A speed=  20x    frame=10398 fps=480 q=-0.0 size=N/A time=00:07:13.68 bitrate=N/A speed=  20x    frame=10678 fps=481 q=-0.0 size=N/A time=00:07:25.36 bitrate=N/A speed=20.1x    frame=10944 fps=482 q=-0.0 size=N/A time=00:07:36.45 bitrate=N/A speed=20.1x    frame=11224 fps=484 q=-0.0 size=N/A time=00:07:48.13 bitrate=N/A speed=20.2x    frame=11511 fps=485 q=-0.0 size=N/A time=00:08:00.10 bitrate=N/A speed=20.2x    frame=11771 fps=486 q=-0.0 size=N/A time=00:08:10.94 bitrate=N/A speed=20.3x    frame=12032 fps=486 q=-0.0 size=N/A time=00:08:21.83 bitrate=N/A speed=20.3x    frame=12308 fps=487 q=-0.0 size=N/A time=00:08:33.34 bitrate=N/A speed=20.3x    frame=12578 fps=488 q=-0.0 size=N/A time=00:08:44.60 bitrate=N/A speed=20.3x    frame=12851 fps=489 q=-0.0 size=N/A time=00:08:55.99 bitrate=N/A speed=20.4x    frame=13119 fps=489 q=-0.0 size=N/A time=00:09:07.17 bitrate=N/A speed=20.4x    frame=13384 fps=490 q=-0.0 size=N/A time=00:09:18.22 bitrate=N/A speed=20.4x    frame=13648 fps=490 q=-0.0 size=N/A time=00:09:29.23 bitrate=N/A speed=20.4x    frame=13935 fps=491 q=-0.0 size=N/A time=00:09:41.20 bitrate=N/A speed=20.5x    frame=14191 fps=491 q=-0.0 size=N/A time=00:09:51.88 bitrate=N/A speed=20.5x    frame=14447 fps=491 q=-0.0 size=N/A time=00:10:02.56 bitrate=N/A speed=20.5x    frame=14711 fps=492 q=-0.0 size=N/A time=00:10:13.57 bitrate=N/A speed=20.5x    frame=15003 fps=493 q=-0.0 size=N/A time=00:10:25.75 bitrate=N/A speed=20.6x    frame=15264 fps=493 q=-0.0 size=N/A time=00:10:36.63 bitrate=N/A speed=20.6x    frame=15530 fps=493 q=-0.0 size=N/A time=00:10:47.73 bitrate=N/A speed=20.6x    frame=15818 fps=494 q=-0.0 size=N/A time=00:10:59.74 bitrate=N/A speed=20.6x    frame=16074 fps=495 q=-0.0 size=N/A time=00:11:10.41 bitrate=N/A speed=20.6x    frame=16358 fps=496 q=-0.0 size=N/A time=00:11:22.26 bitrate=N/A speed=20.7x    frame=16646 fps=496 q=-0.0 size=N/A time=00:11:34.27 bitrate=N/A speed=20.7x    frame=16910 fps=497 q=-0.0 size=N/A time=00:11:45.28 bitrate=N/A speed=20.7x    frame=17162 fps=497 q=-0.0 size=N/A time=00:11:55.79 bitrate=N/A speed=20.7x    frame=17438 fps=497 q=-0.0 size=N/A time=00:12:07.30 bitrate=N/A speed=20.7x    frame=17702 fps=497 q=-0.0 size=N/A time=00:12:18.32 bitrate=N/A speed=20.7x    frame=17975 fps=498 q=-0.0 size=N/A time=00:12:29.70 bitrate=N/A speed=20.8x    frame=18254 fps=498 q=-0.0 size=N/A time=00:12:41.34 bitrate=N/A speed=20.8x    frame=18506 fps=498 q=-0.0 size=N/A time=00:12:51.85 bitrate=N/A speed=20.8x    frame=18744 fps=498 q=-0.0 size=N/A time=00:13:01.78 bitrate=N/A speed=20.8x    frame=19023 fps=498 q=-0.0 size=N/A time=00:13:13.41 bitrate=N/A speed=20.8x    frame=19292 fps=499 q=-0.0 size=N/A time=00:13:24.63 bitrate=N/A speed=20.8x    frame=19534 fps=498 q=-0.0 size=N/A time=00:13:34.73 bitrate=N/A speed=20.8x    frame=19722 fps=496 q=-0.0 size=N/A time=00:13:42.57 bitrate=N/A speed=20.7x    frame=19962 fps=496 q=-0.0 size=N/A time=00:13:52.58 bitrate=N/A speed=20.7x    frame=20184 fps=495 q=-0.0 size=N/A time=00:14:01.84 bitrate=N/A speed=20.7x    frame=20398 fps=494 q=-0.0 size=N/A time=00:14:10.76 bitrate=N/A speed=20.6x    frame=20579 fps=493 q=-0.0 size=N/A time=00:14:18.31 bitrate=N/A speed=20.5x    frame=20819 fps=492 q=-0.0 size=N/A time=00:14:28.32 bitrate=N/A speed=20.5x    frame=20995 fps=490 q=-0.0 size=N/A time=00:14:35.66 bitrate=N/A speed=20.5x    frame=21246 fps=490 q=-0.0 size=N/A time=00:14:46.17 bitrate=N/A speed=20.5x    frame=21490 fps=490 q=-0.0 size=N/A time=00:14:56.31 bitrate=N/A speed=20.4x    frame=21751 fps=490 q=-0.0 size=N/A time=00:15:07.19 bitrate=N/A speed=20.5x    frame=22030 fps=491 q=-0.0 size=N/A time=00:15:18.83 bitrate=N/A speed=20.5x    frame=22310 fps=492 q=-0.0 size=N/A time=00:15:30.51 bitrate=N/A speed=20.5x    frame=22583 fps=492 q=-0.0 size=N/A time=00:15:41.89 bitrate=N/A speed=20.5x    frame=22832 fps=492 q=-0.0 size=N/A time=00:15:52.28 bitrate=N/A speed=20.5x    frame=23070 fps=492 q=-0.0 size=N/A time=00:16:02.21 bitrate=N/A speed=20.5x    frame=23322 fps=491 q=-0.0 size=N/A time=00:16:12.72 bitrate=N/A speed=20.5x    frame=23573 fps=491 q=-0.0 size=N/A time=00:16:23.19 bitrate=N/A speed=20.5x    frame=23825 fps=491 q=-0.0 size=N/A time=00:16:33.70 bitrate=N/A speed=20.5x    frame=24086 fps=491 q=-0.0 size=N/A time=00:16:44.58 bitrate=N/A speed=20.5x    frame=24343 fps=491 q=-0.0 size=N/A time=00:16:55.30 bitrate=N/A speed=20.5x    frame=24637 fps=492 q=-0.0 size=N/A time=00:17:07.56 bitrate=N/A speed=20.5x    frame=24872 fps=492 q=-0.0 size=N/A time=00:17:17.36 bitrate=N/A speed=20.5x    frame=25130 fps=492 q=-0.0 size=N/A time=00:17:28.13 bitrate=N/A speed=20.5x    frame=25371 fps=492 q=-0.0 size=N/A time=00:17:38.18 bitrate=N/A speed=20.5x    frame=25660 fps=492 q=-0.0 size=N/A time=00:17:50.23 bitrate=N/A speed=20.5x    frame=25919 fps=492 q=-0.0 size=N/A time=00:18:01.08 bitrate=N/A speed=20.5x    frame=26177 fps=492 q=-0.0 size=N/A time=00:18:11.79 bitrate=N/A speed=20.5x    frame=26437 fps=493 q=-0.0 size=N/A time=00:18:22.64 bitrate=N/A speed=20.5x    frame=26703 fps=493 q=-0.0 size=N/A time=00:18:33.73 bitrate=N/A speed=20.6x    frame=26987 fps=493 q=-0.0 size=N/A time=00:18:45.58 bitrate=N/A speed=20.6x    frame=27248 fps=493 q=-0.0 size=N/A time=00:18:56.46 bitrate=N/A speed=20.6x    frame=27512 fps=494 q=-0.0 size=N/A time=00:19:07.47 bitrate=N/A speed=20.6x    frame=27785 fps=494 q=-0.0 size=N/A time=00:19:18.86 bitrate=N/A speed=20.6x    frame=28041 fps=494 q=-0.0 size=N/A time=00:19:29.54 bitrate=N/A speed=20.6x    frame=28308 fps=494 q=-0.0 size=N/A time=00:19:40.67 bitrate=N/A speed=20.6x    frame=28575 fps=494 q=-0.0 size=N/A time=00:19:51.81 bitrate=N/A speed=20.6x    frame=28850 fps=495 q=-0.0 size=N/A time=00:20:03.28 bitrate=N/A speed=20.6x    frame=29130 fps=495 q=-0.0 size=N/A time=00:20:14.96 bitrate=N/A speed=20.7x    frame=29388 fps=495 q=-0.0 size=N/A time=00:20:25.72 bitrate=N/A speed=20.7x    frame=29671 fps=496 q=-0.0 size=N/A time=00:20:37.52 bitrate=N/A speed=20.7x    frame=29932 fps=496 q=-0.0 size=N/A time=00:20:48.41 bitrate=N/A speed=20.7x    frame=30187 fps=496 q=-0.0 size=N/A time=00:20:59.04 bitrate=N/A speed=20.7x    frame=30472 fps=496 q=-0.0 size=N/A time=00:21:10.93 bitrate=N/A speed=20.7x    frame=30742 fps=496 q=-0.0 size=N/A time=00:21:22.19 bitrate=N/A speed=20.7x    frame=31020 fps=497 q=-0.0 size=N/A time=00:21:33.79 bitrate=N/A speed=20.7x    frame=31295 fps=497 q=-0.0 size=N/A time=00:21:45.26 bitrate=N/A speed=20.7x    frame=31562 fps=497 q=-0.0 size=N/A time=00:21:56.39 bitrate=N/A speed=20.7x    frame=31825 fps=497 q=-0.0 size=N/A time=00:22:07.36 bitrate=N/A speed=20.7x    frame=32093 fps=498 q=-0.0 size=N/A time=00:22:18.54 bitrate=N/A speed=20.8x    frame=32340 fps=497 q=-0.0 size=N/A time=00:22:28.84 bitrate=N/A speed=20.7x    frame=32611 fps=498 q=-0.0 size=N/A time=00:22:40.15 bitrate=N/A speed=20.8x    frame=32832 fps=497 q=-0.0 size=N/A time=00:22:49.36 bitrate=N/A speed=20.7x    frame=33090 fps=497 q=-0.0 size=N/A time=00:23:00.12 bitrate=N/A speed=20.7x    frame=33357 fps=497 q=-0.0 size=N/A time=00:23:11.26 bitrate=N/A speed=20.7x    frame=33592 fps=497 q=-0.0 size=N/A time=00:23:21.06 bitrate=N/A speed=20.7x    frame=33800 fps=496 q=-0.0 size=N/A time=00:23:29.74 bitrate=N/A speed=20.7x    frame=34012 fps=496 q=-0.0 size=N/A time=00:23:38.58 bitrate=N/A speed=20.7x    frame=34273 fps=496 q=-0.0 size=N/A time=00:23:49.46 bitrate=N/A speed=20.7x    frame=34503 fps=495 q=-0.0 size=N/A time=00:23:59.06 bitrate=N/A speed=20.7x    [Parsed_ssim_10 @ 0000018dccba6e40] SSIM Y:0.996631 (24.725014) U:0.995800 (23.767496) V:0.995621 (23.586658) All:0.996324 (24.346535)
[out#0/null @ 0000018dca194a80] video:14873KiB audio:270688KiB subtitle:0KiB other streams:0KiB global headers:0KiB muxing overhead: unknown
frame=34613 fps=496 q=-0.0 Lsize=N/A time=00:24:03.65 bitrate=N/A speed=20.7x    
